<?xml version="1.0" encoding="UTF-8"?>
<svg id="Layer_2" xmlns="http://www.w3.org/2000/svg" viewBox="0 0 101.27 101.08">
  <defs>
    <style>
      .cls-1 {
        fill: #fff;
      }
    </style>
  </defs>
  <g id="Capa_1">
    <path class="cls-1" d="M61.03,74.59c2.8.1,5.41-.53,7.99-1.32,1.6-.49,3.16-1.09,4.71-1.72.3-.12.65-.6.65-.91.03-7.14.02-14.28.02-21.42,0-.11-.04-.21-.07-.38-.54-.15-1.1-.29-1.65-.46-5.14-1.56-9.34-6.82-9.37-11.71,0-1.45.53-2,1.98-1.94,3.05.13,5.61,1.42,7.83,3.44.37.34.63.79.94,1.18.11-.06.23-.12.34-.18,0-2.12.02-4.25-.04-6.37,0-.21-.53-.49-.85-.59-5.38-1.59-8.84-5.04-10.06-10.56-.63-2.85.16-3.65,3.04-3.22,2.56.38,4.75,1.58,6.63,3.33.36.34.62.79.93,1.2l.34-.2c0-1.58.03-3.16-.02-4.73,0-.28-.32-.55-.51-.81-3.25-4.32-3.27-11.23-.05-15.57.07-.09.13-.17.2-.26,1.48-1.85,2.4-1.86,3.86.04,1.88,2.44,2.62,5.24,2.56,8.28-.06,2.85-.83,5.45-2.6,7.72-.19.24-.33.58-.33.88-.03,1.45-.02,2.9-.02,4.64.44-.42.7-.69.97-.94,2.19-2.04,4.69-3.43,7.73-3.67,1.82-.15,2.43.42,2.34,2.21-.27,5.17-4.75,10.4-10.06,11.61-.84.19-1.02.54-1,1.31.05,1.88.01,3.75.01,5.76,1.05-.86,1.93-1.66,2.89-2.34,1.85-1.31,3.91-2.08,6.2-2.15,1.46-.04,2,.51,1.96,1.96-.12,5.23-4.64,10.59-10.02,11.89-.32.08-.63.15-.99.24v20.96c.2-.05.38-.05.52-.12,4.43-2.15,8.73-4.55,12.46-7.8,3.18-2.78,7.09-2.04,9.14.38,2.42,2.85,2.12,7.14-.76,9.61-2.1,1.8-4.26,3.54-6.47,5.2-7.99,5.98-16.21,11.62-24.91,16.53-4.94,2.79-10.31,3.79-15.86,3.73-8.73-.11-17.46-.49-26.2-.71-3.3-.08-6.61-.01-9.65-.01-.53,1.14-.88,2.25-1.51,3.17-.67.96-1.78,1.34-2.98,1.34-2.26,0-4.52.01-6.77,0-2.87-.01-4.51-1.66-4.52-4.57-.01-4.48,0-8.96,0-13.44,0-3.17,0-6.34,0-9.51,0-3.06,1.61-4.67,4.63-4.68,2.15,0,4.3.02,6.45,0,1.5-.02,2.66.56,3.6,1.72.19.24.74.42,1.01.32,1.56-.59,3.11-1.24,4.61-1.96.32-.15.63-.68.64-1.04.06-1.93.06-3.86,0-5.79-.01-.46-.25-.97-.53-1.35-3.16-4.33-3.23-11.08-.11-15.41,1.7-2.36,2.75-2.35,4.45.02,3.11,4.34,3.03,11.11-.13,15.41-.33.45-.53,1.1-.56,1.67-.08,1.52-.03,3.04-.03,4.75,7.57-3.66,15.37-4.62,23.64-3.01,0-2.23.03-4.43-.04-6.63,0-.22-.58-.52-.94-.63-5.2-1.57-8.59-4.92-9.88-10.22-.79-3.22.2-4.14,3.44-3.46,2.5.53,4.61,1.75,6.43,3.5.25.24.41.59.61.89.12-.07.24-.14.35-.2,0-2.01.02-4.02-.02-6.03,0-.27-.33-.55-.52-.81-3.29-4.47-3.16-11.6.29-15.83,1.4-1.72,2.31-1.72,3.72.04,3.44,4.27,3.53,11.33.25,15.84-.33.46-.54,1.11-.56,1.68-.07,1.69-.03,3.39-.03,5.31.83-.73,1.45-1.32,2.12-1.84,2.06-1.6,4.35-2.64,7-2.71,1.46-.04,1.97.49,1.95,1.96-.07,5.13-4.6,10.58-9.92,11.83-.95.22-1.2.6-1.17,1.51.06,2.04.04,4.08,0,6.12-.01.64.23.93.8,1.22,1.97,1,3.98,1.98,5.83,3.19,2.26,1.48,3.2,3.13,3.66,5.68ZM15.43,93.38c.63,0,1.1-.01,1.57,0,4.44.12,8.88.24,13.32.35,7.17.18,14.34.41,21.5.48,5.83.06,11.24-1.43,16.29-4.5,9.15-5.57,18-11.56,26.4-18.22.88-.7,1.77-1.41,2.58-2.19,1.4-1.36,1.45-3.75.17-5.16-1.25-1.38-2.99-1.4-4.66-.03-5.35,4.36-11.33,7.64-17.68,10.26-4.59,1.89-9.28,3.44-14.36,3.3-.27,0-.62.3-.82.55-.97,1.21-2.19,2-3.71,2.32-2.16.45-4.17-.03-6.18-.8-4.26-1.64-8.52-3.3-13.21-1.68-.87.3-1.59-.17-1.83-1.1-.22-.88.18-1.54,1.02-1.78,1.22-.34,2.46-.73,3.71-.81,3.91-.26,7.51,1.04,11.12,2.34,1.34.48,2.79.78,4.22.89,1.24.1,2.2-.65,2.74-1.82.53-1.14.2-2.17-.59-3.02-.66-.71-1.39-1.44-2.23-1.89-2.04-1.11-4.09-2.28-6.27-3.03-6.84-2.36-13.66-1.64-20.28.9-4.17,1.6-8.2,3.56-12.26,5.42-.31.14-.55.78-.55,1.2-.04,5.65-.02,11.29-.02,16.94,0,.32,0,.64,0,1.08ZM3.07,84.99c0,3.82,0,7.64,0,11.46,0,1.25.31,1.54,1.55,1.55,2.07,0,4.15,0,6.22,0,1.17,0,1.51-.33,1.51-1.48,0-7.72,0-15.43,0-23.15,0-1-.43-1.46-1.45-1.45-2.04.03-4.08,0-6.11,0-1.48,0-1.73.24-1.73,1.7,0,3.78,0,7.57,0,11.35ZM73.97,45.61c.21-2.67-4.49-7.57-7.42-7.41,1.25,3.72,3.68,6.17,7.42,7.41ZM39.93,46.46c.75,3.48,4.67,7.29,7.41,7.29-.41-3.1-4.29-6.96-7.41-7.29ZM22.55,58.21c1.93-2.76,1.91-8.04-.04-10.46-1.94,2.58-1.91,8.16.04,10.46ZM75.88,4.13c-1.91,2.97-1.9,7.77.02,10.52,1.98-2.25,1.94-8.38-.02-10.52ZM85.19,21.74c-3.05.15-7.42,4.69-7.34,7.36,3.22-.6,6.67-4.03,7.34-7.36ZM51.05,53.8c3.61-.36,7.58-5.25,7.33-7.38-3.24.63-6.69,4.07-7.33,7.38ZM85.11,38.15c-3.03.24-7.29,4.56-7.26,7.35,3.24-.55,7.06-4.42,7.26-7.35ZM66.62,21.68c.79,3.52,4.53,7.19,7.44,7.36-.44-3.14-4.21-6.91-7.44-7.36ZM49.22,38.15c1.96-2.67,1.94-8.29-.04-10.5-1.91,2.78-1.89,7.85.04,10.5Z"/>
  </g>
</svg>