<?xml version="1.0" encoding="UTF-8"?>
<svg id="Layer_2" xmlns="http://www.w3.org/2000/svg" viewBox="0 0 84.38 98.01">
  <defs>
    <style>
      .cls-1 {
        fill: #fff;
      }
    </style>
  </defs>
  <g id="Capa_1">
    <g>
      <path class="cls-1" d="M44.79,92.92c-.08-.34-.1-.63-.21-.88-1.76-4.31-4.72-7.5-8.95-9.45-.57-.26-1.35-.3-1.97-.17-2.84.6-5.69.87-8.57.39-4.88-.82-8.4-3.53-10.55-7.92-.89-1.82-1.41-3.83-2.04-5.77-.33-1,.1-1.75,1.07-2.06,3.15-1.01,6.37-1.57,9.67-1,6.5,1.13,10.02,5.55,12.09,11.37.43,1.2,1.31,2.19,2.46,2.75,2.75,1.32,5.01,3.3,6.87,5.73.25.33.53.65,1.05.91-.12-2.2-.19-4.39-.35-6.59-.53-7.12-1.75-14.1-4.5-20.74-2.38-5.75-5.81-10.71-10.96-14.37-.88-.62-1.66-.83-2.76-.55-4.34,1.1-8.71,1.3-13.06.03-6.87-2.02-10.73-6.97-12.96-13.46-.41-1.19-.72-2.42-1.02-3.65-.24-.95-.04-1.81.98-2.13,5.03-1.59,10.13-2.37,15.29-.67,6.09,2,9.95,6.43,12.11,12.2,1.19,3.18,2.82,5.56,5.56,7.61,4.08,3.05,6.76,7.36,8.92,11.95.26.55.52,1.1.78,1.65.02.03.07.05,0,0,1.63-1.39,3.26-2.73,4.83-4.15.35-.32.54-.86.71-1.34,1.04-3.02,2.51-5.77,5.11-7.74,4.2-3.19,8.79-2.86,13.45-1.34,1,.33,1.05,1.22.85,2.19-1.84,8.7-8.26,12.82-17.11,11.01-.62-.13-1.39.13-2,.42-.57.27-1.02.81-1.52,1.23-2.17,1.84-3.14,3.74-2.06,6.87,1.72,4.99,2.22,10.3,2.54,15.58.05.78.13,1.55.23,2.62.77-1.37,1.37-2.5,2.03-3.6,2.23-3.71,5.19-6.77,8.55-9.47.62-.5,1.1-1.15,1.35-1.91,1.1-3.33,2.62-6.39,5.19-8.84,4.04-3.83,8.88-4.53,14.12-3.53,1.03.2,2.04.47,3.04.77,1.03.31,1.56,1.04,1.22,2.1-.67,2.06-1.24,4.21-2.23,6.12-3.03,5.86-8.09,8.3-14.55,8.02-1.52-.07-3.01-.43-4.53-.59-.47-.05-1.07-.02-1.44.22,0,0-9.95,8.84-12.87,20.17,0,0-.27,2.45-.34,4-.03.61-.52,1.09-1.13,1.09h-1.6c-.67,0-1.19-.57-1.13-1.23l.33-3.86ZM24.39,41.92c-.58-.37-.92-.61-1.28-.82-2.79-1.62-5.59-3.22-8.38-4.84-1.09-.63-1.42-1.51-.94-2.35.48-.84,1.39-.98,2.52-.34,2.08,1.19,4.16,2.39,6.23,3.59,1.07.62,2.15,1.24,3.37,1.94-3.72-11-13.71-14.13-22.39-11.02,2.2,10.15,10.3,15.63,20.87,13.84ZM64.79,67.02c.62-.36,1.14-.64,1.65-.94,1.66-.96,3.31-1.93,4.98-2.86.88-.49,1.72-.38,2.24.56.51.9.1,1.59-.67,2.11-.43.29-.9.54-1.35.8-1.71.99-3.41,1.97-5.3,3.06,6.76,1.29,14.07-4.04,14.36-10.21-6.67-2.07-13.38.65-15.92,7.47ZM15.96,69.72c1.34,6.72,7.79,11.32,14.02,9.94-.56-.34-1.02-.62-1.5-.9-1.66-.96-3.33-1.9-4.97-2.89-.83-.51-1.02-1.32-.52-2.15.47-.79,1.23-.92,2.05-.53.39.18.76.42,1.14.63,1.78,1.02,3.57,2.05,5.52,3.17-2.38-6.36-9.3-9.49-15.74-7.26ZM53.53,51.08c1.4-.8,2.66-1.53,3.93-2.25,1.24-.7,2.12-.63,2.64.2.56.89.2,1.76-1.07,2.51-1.24.73-2.48,1.46-3.95,2.31,5.01.35,9.33-3.05,10.13-7.71-4.55-1.58-10.02.66-11.68,4.94Z"/>
      <g>
        <path class="cls-1" d="M55.09,9.48c-2.02-2.05-3.8-2.04-5.83.02-2.3,2.33-3.74,5.17-4.45,8.35-1.03,4.65,2.56,9.06,7.33,9.08,4.47.02,8.23-4.02,7.56-8.3-.55-3.51-2.11-6.61-4.62-9.16ZM54.27,22.49c-1.3.88-2.69.91-4.02.1-1.32-.8-2.07-2.05-1.81-3.59.45-2.72,1.85-4.98,3.73-7.18,1.92,2.16,3.22,4.4,3.75,7,.31,1.53-.36,2.8-1.65,3.67Z"/>
        <path class="cls-1" d="M35.05,1.53c-2.02-2.05-3.8-2.04-5.83.02-2.3,2.33-3.74,5.17-4.45,8.35-1.03,4.65,2.56,9.06,7.33,9.08,4.47.02,8.23-4.02,7.56-8.3-.55-3.51-2.11-6.61-4.62-9.16ZM34.24,14.54c-1.3.88-2.69.91-4.02.1-1.32-.8-2.07-2.05-1.81-3.59.45-2.72,1.85-4.98,3.73-7.18,1.92,2.16,3.22,4.4,3.75,7,.31,1.53-.36,2.8-1.65,3.67Z"/>
      </g>
    </g>
  </g>
</svg>