<?xml version="1.0" encoding="UTF-8"?>
<svg id="Layer_2" xmlns="http://www.w3.org/2000/svg" viewBox="0 0 134.99 51.76">
  <defs>
    <style>
      .cls-1 {
        fill: #fff;
      }
    </style>
  </defs>
  <g id="Capa_1">
    <path class="cls-1" d="M67.72.06h1.96c20.59,0,41.18,0,61.77,0,.52,0,1.05-.04,1.57.02,1.2.14,1.96.8,1.97,2.04,0,1.33-.78,2.01-2.07,2.12-.52.04-1.05.01-1.57.01-21.06,0-42.11,0-63.17,0-1.97,0-2.94,1.29-2.15,3.12.94,2.18,2.09,4.26,3.34,6.77,1.24-1.68,2.23-3.01,3.21-4.35.48-.66.96-1.32,1.44-1.98,1.32-1.79,2.39-2.18,3.57-1.28,1.08.82,1.03,2.06-.15,3.69-1.23,1.7-2.48,3.39-3.71,5.09-.34.47-.66.95-1.29,1.86,1.53.25,2.78.62,4.04.63,1.41,0,2.5.31,2.65,1.85.15,1.54-.89,2.32-2.24,2.32-1.76,0-3.52-.3-5.23-.47.49,2.6,1.73,3.49,4.36,3.23,4.28-.41,8.26.81,11.85,2.95,3.36,2,6.37,1.78,9.46-.3.48-.32.98-.63,1.48-.93,1.11-.66,2.17-.59,2.92.5.81,1.17.44,2.26-.69,3.01-3.12,2.08-6.3,4.04-10.56,3.56,2.56,4.17,6.15,6.68,10.4,8.37.59.24,1.22.4,1.8.67,1.19.56,1.63,1.54,1.13,2.74-.46,1.12-1.45,1.58-2.59,1.14-2.32-.9-4.6-1.92-7.24-3.03.8,1.67,1.57,3.16,2.24,4.7.29.67.69,1.51.5,2.1-.21.64-1,1.41-1.63,1.51-.63.1-1.7-.36-2.03-.91-1.84-3.01-3.34-6.15-2.83-9.87.06-.47-.23-1.05-.5-1.5-1.54-2.59-3.11-5.15-4.68-7.72-.26-.42-.48-1.05-.87-1.19-2-.72-4.04-1.32-6.52-2.1,2.5,4.78,1.82,8.97-.07,13.12-.58,1.28-1.38,2.24-2.97,1.65-1.33-.49-1.49-1.63-.88-3.39.59-1.69,1.14-3.44,1.32-5.2.2-2.07-.69-3.83-2.41-5.16-3.7-2.85-6.31-6.25-5.43-11.32.04-.21,0-.49-.12-.66-1.12-1.6-2.27-3.19-3.41-4.78-.18.04-.36.08-.54.13.89,3.78.02,7.85,2.4,11.38.58.87,1.35,1.61,1.89,2.51,1.6,2.68,1.58,5.38.02,8.12-.33.57-.37,1.51-.16,2.16,1.17,3.69-.73,10.18-3.76,12.48-.91.69-1.86.69-2.7-.08-.84-.77-.94-1.71-.32-2.68.69-1.08,1.55-2.08,2.05-3.24.58-1.34.85-2.82,1.25-4.24-.16-.09-.31-.17-.47-.26-1.27.66-2.54,1.31-3.81,1.96-1.28.66-2.47.53-3.12-.83-.65-1.36.07-2.26,1.29-2.98,1.75-1.03,3.54-2.04,5.07-3.35,1.87-1.61,2.26-3.97.47-5.57-3.01-2.69-3.08-6.17-3.94-9.94-.05.21-.11.43-.16.64-1.09,4.57-4.29,7.08-8.5,8.46-1.33.44-1.85,1.15-2.01,2.43-.47,3.88.53,7.39,2.55,10.67.24.4.52.77.77,1.17.72,1.16.69,2.29-.49,3.06-1.19.78-2.22.33-3-.79-2.87-4.09-4.39-8.58-4.07-13.63.02-.34,0-.69,0-1.24-2.57,1.01-4.36,2.77-5.81,4.9-2.63,3.86-4.15,8.19-5.11,12.73-.52,2.45-1.31,3.34-2.76,3.04-1.46-.3-1.95-1.54-1.33-3.9.7-2.7,1.53-5.36,2.36-8.26-2.9.75-5.26,2.06-6.58,4.84-.37.79-.66,1.62-1.1,2.37-.69,1.17-1.78,1.59-2.98.91-1.23-.7-1.09-1.76-.66-3.03,2.13-6.27,6.9-8.9,13.05-9.77.5-.07,1.12-.44,1.39-.86,3.07-4.77,7.44-7.33,13.01-8.24,1.82-.3,3.51-1.37,5.26-2.09-.05-.18-.09-.35-.14-.53-1.68-.13-3.41-.08-5.04-.44-2.6-.59-5.15-1.42-7.69-2.24-1.3-.41-1.93-1.44-1.45-2.74.52-1.39,1.63-1.57,3.03-1.14,2.32.73,4.66,1.56,7.05,1.91,5,.74,8.48-1.1,10.75-5.62,1.01-2,1.6-4.21,2.51-6.67h-2.33c-18.84,0-37.68,0-56.52,0-.58,0-1.34.2-1.71-.09C.91,3.62.05,2.81,0,2.07-.04,1.45.91.64,1.59.16c.4-.28,1.13-.1,1.71-.1,18.78,0,37.56,0,56.35,0h2.27s5.8,0,5.8,0Z"/>
  </g>
</svg>