<?xml version="1.0" encoding="UTF-8"?>
<svg id="Layer_2" xmlns="http://www.w3.org/2000/svg" viewBox="0 0 78.18 76.37">
  <defs>
    <style>
      .cls-1 {
        fill: #fff;
      }
    </style>
  </defs>
  <g id="Capa_1">
    <g>
      <path class="cls-1" d="M36.41,69.38c8.05,1.83,15.69.91,22.84-3.13,7.96-4.5,13.14-11.26,15.13-20.18.76-3.39.8-6.99.81-10.5.01-3.28-.41-6.57-.69-9.85-.09-1.08-.25-1.19-1.34-1.13-18.14,1.02-31.2,9.77-39.3,25.97-1.92,3.85-3.04,7.98-3.61,12.25-.15,1.15-.73,1.74-1.62,1.68-.88-.05-1.51-.84-1.35-1.79.28-1.63.59-3.26.94-4.89.11-.51.06-.86-.31-1.28-5.77-6.47-8.35-14.07-7.74-22.68.5-7.07,3.28-13.21,8.1-18.41,1.22-1.31,2.97-1.55,4.54-.58,5.63,3.47,9.18,8.44,10.63,14.89.2.87.31,1.76.47,2.73.21-.13.4-.23.56-.36,6.74-5.41,14.39-8.74,22.92-10,2.06-.3,4.15-.41,6.23-.49,1.89-.07,3.35,1.19,3.65,3.07,1.05,6.52,1.19,13.06.36,19.61-1.65,13.04-12.2,25.07-26.48,28.11-5.93,1.26-11.8.99-17.6-.8-.39-.12-.93-.03-1.31.15-3.05,1.43-6.08,2.92-9.13,4.35-.91.43-1.6.24-2.04-.39-.6-.85-.22-1.79.86-2.3,2.75-1.29,5.57-2.45,8.21-3.92,10.79-6,19.36-14.33,25.77-24.88.19-.31.37-.63.57-.94.54-.83,1.35-1.05,2.09-.58.7.44.91,1.27.42,2.07-1.12,1.82-2.23,3.66-3.45,5.41-5.01,7.16-11.15,13.19-18.37,18.11-.21.14-.42.28-.62.43-.04.03-.06.09-.14.24ZM29.28,53.67c.81-1.88,1.59-3.69,2.36-5.5.08-.18.14-.38.14-.56-.03-3.12.1-6.26-.16-9.36-.25-3.02-.91-6-1.38-9-.15-.95.28-1.63,1.09-1.8.87-.18,1.61.29,1.78,1.24.49,2.8.99,5.59,1.38,8.4.24,1.74.29,3.5.43,5.3.09-.07.16-.11.21-.17,1.85-2.23,3.71-4.45,5.53-6.69.21-.25.34-.65.33-.98-.14-7.23-3.24-12.84-9.23-16.89-.72-.48-1.18-.47-1.78.22-6.41,7.5-8.47,16.02-6.03,25.59.97,3.78,2.8,7.15,5.33,10.2Z"/>
      <path class="cls-1" d="M21.53,76.27C8.25,69.22,0,55.51,0,40.48,0,18.16,18.16,0,40.48,0c14.52,0,28,7.84,35.2,20.47l.1.2,1.26,3.21-2.87,1.13-1.22-3.1C66.29,10.29,53.86,3.09,40.48,3.09,19.86,3.09,3.09,19.86,3.09,40.48c0,13.88,7.62,26.55,19.89,33.06l-1.45,2.73Z"/>
    </g>
  </g>
</svg>