<?xml version="1.0" encoding="UTF-8"?>
<svg id="Layer_2" xmlns="http://www.w3.org/2000/svg" viewBox="0 0 134.17 75.78">
  <defs>
    <style>
      .cls-1 {
        fill: #fff;
      }
    </style>
  </defs>
  <g id="Capa_1">
    <g>
      <path class="cls-1" d="M84.44,17.24h4.19V4.4h-43.11v12.83h4.28v-8.48h13v8.51h8.58v-8.49h13.05v8.47Z"/>
      <path class="cls-1" d="M32.52,64.29c-.33,1.41.53,2.63,1.83,2.8,1.21.16,2.34-.79,2.4-2.18.08-2.01.02-4.03.02-6.39-2.13,1.68-3.69,3.38-4.25,5.77Z"/>
      <path class="cls-1" d="M125.54,49.86c0,2.22,0,4.1,0,5.98,0,1.07.32,2.09,1.38,2.38.67.18,1.63,0,2.21-.39.92-.62.88-1.69.54-2.7-.71-2.13-2.12-3.7-4.13-5.26Z"/>
      <path class="cls-1" d="M4.41,55.49c-.39,1.47.45,2.76,1.79,2.95,1.26.17,2.37-.82,2.42-2.3.06-1.97.02-3.95.02-6.27-2.1,1.64-3.62,3.31-4.23,5.62Z"/>
      <path class="cls-1" d="M97.4,58.52c0,2.26-.13,4.2.06,6.1.08.81.68,1.79,1.35,2.23.46.31,1.58.03,2.17-.35.88-.57.89-1.59.59-2.57-.68-2.2-2.13-3.8-4.17-5.41Z"/>
      <path class="cls-1" d="M67.07,58.52c-2.15,2.52-3.75,5.1-4.26,8.19-.29,1.76.56,3.18,2.07,4.1,1.52.93,3.11.89,4.59-.11,1.47-.99,2.23-2.44,1.88-4.19-.6-2.97-2.09-5.53-4.27-7.99Z"/>
      <path class="cls-1" d="M47.87,0c-.73,0-1.13,0-1.54,0-3.6,0-5.21,1.61-5.21,5.17,0,5,0,10.01,0,15.01v1.39h13.02v-8.48h4.35v8.46h17.33v-8.49h4.3v8.48h12.95c0-5.88.04-11.64-.02-17.41-.02-2.29-1.9-4.03-4.2-4.12-.72-.03-1.44,0-2.24,0h-38.73ZM71.39,8.77v8.49h-8.58v-8.51h-13v8.48h-4.28V4.4h43.11v12.84h-4.19v-8.47h-13.05Z"/>
      <path class="cls-1" d="M70.4,55.86c-2.3-2.34-4.33-2.32-6.65.03-2.62,2.66-4.27,5.9-5.08,9.53-1.18,5.31,2.92,10.33,8.36,10.36,5.09.02,9.39-4.58,8.63-9.47-.63-4.01-2.41-7.54-5.27-10.45ZM69.47,70.7c-1.48,1-3.07,1.04-4.59.11-1.51-.92-2.36-2.34-2.07-4.1.51-3.1,2.11-5.68,4.26-8.19,2.19,2.46,3.67,5.02,4.27,7.99.35,1.74-.41,3.2-1.88,4.19Z"/>
      <path class="cls-1" d="M134.01,54.8c-.85-3.88-3.17-6.75-6.55-8.7-2.83-1.64-6.13.35-6.25,3.65-.04,1.08,0,2.16,0,3.25h0c0,1.13-.04,2.26,0,3.38.16,3.88,3.52,6.83,7.23,6.37,3.85-.47,6.41-4.09,5.56-7.95ZM129.12,57.82c-.58.39-1.54.58-2.21.39-1.06-.29-1.38-1.31-1.38-2.38,0-1.88,0-3.76,0-5.98,2,1.56,3.42,3.13,4.13,5.26.34,1.01.38,2.08-.54,2.7Z"/>
      <path class="cls-1" d="M99.29,54.75c-2.78-1.6-6.06.34-6.21,3.56-.05,1.13,0,2.25,0,3.38,0,1.13-.04,2.26,0,3.38.17,3.87,3.56,6.81,7.26,6.34,3.85-.49,6.38-4.1,5.52-7.98-.86-3.88-3.18-6.74-6.57-8.69ZM100.98,66.49c-.59.38-1.71.66-2.17.35-.67-.44-1.26-1.42-1.35-2.23-.19-1.9-.06-3.84-.06-6.1,2.04,1.61,3.49,3.21,4.17,5.41.3.97.28,2-.59,2.57Z"/>
      <path class="cls-1" d="M12.96,49.64c-.16-3.23-3.44-5.16-6.22-3.55-3.38,1.95-5.7,4.81-6.56,8.69-.82,3.68,1.36,7.05,5.01,7.87,3.41.76,6.8-1.43,7.56-5.06.31-1.48.23-3.04.32-4.57h-.1c0-1.13.05-2.26,0-3.39ZM8.62,56.13c-.05,1.48-1.16,2.48-2.42,2.3-1.34-.19-2.18-1.47-1.79-2.95.61-2.32,2.13-3.98,4.23-5.62,0,2.32.05,4.3-.02,6.27Z"/>
      <path class="cls-1" d="M41.1,58.32c-.15-3.24-3.42-5.18-6.2-3.58-3.43,1.97-5.77,4.88-6.61,8.81-.77,3.59,1.43,6.94,5.02,7.75,3.36.76,6.76-1.36,7.55-4.9.34-1.52.26-3.13.38-4.7-.04,0-.08,0-.11,0,0-1.13.04-2.26,0-3.38ZM36.75,64.91c-.05,1.4-1.19,2.34-2.4,2.18-1.3-.17-2.16-1.39-1.83-2.8.56-2.39,2.12-4.09,4.25-5.77,0,2.36.06,4.38-.02,6.39Z"/>
      <path class="cls-1" d="M34.27,26.55c-.03-.12-.13-.23-.28-.48-9.68,2.37-17.28,7.66-22.9,16.07,1.28.78,2.45,1.5,3.68,2.26,4.93-7.39,11.71-12.04,20.28-14.16-.28-1.31-.52-2.5-.78-3.68Z"/>
      <path class="cls-1" d="M99.98,26.27c-.27,1.25-.55,2.52-.87,3.96,8.65,2.14,15.4,6.83,20.3,14.18,1.26-.78,2.43-1.5,3.59-2.21-4.42-7.71-16.48-16.03-23.02-15.93Z"/>
      <path class="cls-1" d="M69.18,26.05h-4.17v23.64h4.17v-23.64Z"/>
      <path class="cls-1" d="M97.33,49.1c-2.9-7.5-7.45-13.52-13.83-18.44-.88,1.28-1.64,2.38-2.44,3.54,5.47,4.35,9.56,9.67,12.17,16.24,1.34-.44,2.64-.86,4.1-1.34Z"/>
      <path class="cls-1" d="M37.08,49.18c1.22.4,2.45.8,3.86,1.25,2.61-6.52,6.66-11.86,12.19-16.23-.8-1.16-1.58-2.29-2.35-3.41-5.15,2.91-13.12,13.63-13.69,18.38Z"/>
    </g>
  </g>
</svg>