<?xml version="1.0" encoding="UTF-8"?>
<svg id="Layer_2" xmlns="http://www.w3.org/2000/svg" viewBox="0 0 69.69 75.7">
  <defs>
    <style>
      .cls-1 {
        fill: #fff;
      }
    </style>
  </defs>
  <g id="Capa_1">
    <g>
      <path class="cls-1" d="M60.26,15.45c-.21.23-.4.48-.63.68-2.03,1.73-2.99,3.9-2.78,6.58.16,1.98.34,3.95.05,5.94-.31,2.11-.86,4.14-1.82,6.04-1.39,2.75-3.61,4.57-6.46,5.62-3.5,1.3-7.02,1.49-10.55.06-.34-.14-.66-.31-.98-.48-.32-.17-.62-.36-.98-.57-1.22,2.66-2.08,5.4-2.66,8.27,1.61.15,3.14.5,4.59,1.12,2.49,1.07,4.6,2.65,6.31,4.77.41.51.37,1.1-.08,1.45-.44.34-.97.25-1.4-.24-.06-.08-.12-.16-.19-.23-2.33-2.66-5.17-4.41-8.72-4.86-3.75-.48-7.07.58-9.99,2.92-.78.63-1.47,1.38-2.16,2.11-.49.52-1.01.66-1.47.3-.47-.37-.5-.93-.03-1.48,2.64-3.14,5.93-5.16,10.05-5.74.11-.02.22-.05.46-.1-.94-1.55-1.85-3.04-2.79-4.58-1.24,1.1-2.61,1.76-4.14,1.96-3.96.51-7.46-.4-9.99-3.7-1.35-1.76-1.9-3.88-2.07-6.07-.09-1.15-.04-2.31.06-3.46.18-2-.39-3.65-1.96-4.93-.37-.31-.61-.66-.45-1.16.17-.49.56-.63,1.04-.69,3.67-.4,7.3-.25,10.84.9,2.94.95,5.45,2.58,7.28,5.08,2.36,3.21,2.46,6.66.81,10.21-.13.27-.16.44.02.7.82,1.22,1.6,2.46,2.44,3.74.2-.71.34-1.39.58-2.04.63-1.74,1.31-3.46,1.94-5.19.07-.18.08-.48-.03-.6-2.18-2.61-2.78-5.67-2.57-8.97.22-3.42,1.84-6.14,4.22-8.5,3.17-3.13,7.03-4.87,11.33-5.74,3.91-.79,7.85-.83,11.8-.39.49.05.82.28,1.07.68v.6ZM35.56,36.11c.14-.25.24-.42.34-.6,2.38-4.24,5.44-7.92,9.18-11.03.71-.59,1.23-.63,1.64-.15.43.5.29,1.03-.43,1.63-3.55,2.95-6.45,6.44-8.71,10.46-.21.37-.4.74-.64,1.19.63.35,1.18.72,1.78.97,3.26,1.35,6.5,1.06,9.69-.25,2.28-.93,4.06-2.45,5.04-4.73.56-1.29.98-2.66,1.32-4.03.54-2.16.37-4.37.17-6.56-.2-2.12.18-4.12,1.34-5.93.24-.37.51-.73.79-1.14-.2-.02-.36-.05-.52-.06-2.98-.14-5.95-.02-8.88.58-4.11.85-7.75,2.56-10.71,5.63-3.11,3.23-3.93,7-2.81,11.26.26.99.71,1.91,1.39,2.77ZM26.85,41.5c-.12-.16-.2-.29-.29-.4-1.61-1.77-3.21-3.56-4.86-5.3-.7-.74-1.54-1.36-2.3-2.04-.42-.38-.47-.92-.14-1.33.33-.41.87-.47,1.33-.15.07.05.13.1.19.15,2.36,1.94,4.5,4.09,6.45,6.45.24.29.47.59.74.92.07-.13.13-.21.15-.3.84-2.58.73-5.06-.92-7.31-1.13-1.55-2.58-2.74-4.29-3.61-2.65-1.35-5.5-1.81-8.44-1.89-.64-.02-1.27,0-2.04,0,1.4,1.84,1.52,3.8,1.3,5.85-.17,1.58-.05,3.14.38,4.67.5,1.81,1.28,3.44,2.91,4.52,1.41.94,2.98,1.42,4.66,1.5,1.91.09,3.67-.34,5.17-1.72Z"/>
      <path class="cls-1" d="M34.85,75.7c-1.1,0-2.2-.21-3.25-.62l-26-10.26c-3.4-1.34-5.6-4.57-5.6-8.23V8.84C0,3.97,3.97,0,8.84,0h52c4.88,0,8.84,3.97,8.84,8.84v47.75c0,3.65-2.2,6.88-5.6,8.23l-26,10.26c-1.05.41-2.15.62-3.25.62ZM8.84,2.58c-3.45,0-6.26,2.81-6.26,6.26v47.75c0,2.59,1.56,4.88,3.96,5.83l26,10.26c1.48.59,3.12.58,4.6,0l26-10.26c2.41-.95,3.96-3.24,3.96-5.83V8.84c0-3.45-2.81-6.26-6.26-6.26H8.84Z"/>
    </g>
  </g>
</svg>